<svg xmlns="http://www.w3.org/2000/svg" width="1040" height="600" viewBox="0 0 1040 600" font-family="Segoe UI, Arial, sans-serif">
<rect x="0" y="0" width="1040" height="600" fill="#FFFFFF"/>
<defs><marker id="fa" markerWidth="12" markerHeight="12" refX="9" refY="4" orient="auto"><path d="M0,0 L10,4 L0,8 Z" fill="#1F3864"/></marker></defs>
<text x="520.0" y="34" text-anchor="middle" font-size="20" font-weight="bold" fill="#1F3864">Diagram Sebab-Akibat (Fishbone) Keterlambatan Sinkronisasi Data Gate</text>
<line x1="70" y1="320" x2="770" y2="320" stroke="#1F3864" stroke-width="4" marker-end="url(#fa)"/>
<rect x="778" y="262" width="250" height="116" rx="10" fill="#1F3864" stroke="#13264a" stroke-width="2"/>
<text x="903.0" y="288" text-anchor="middle" font-size="13" font-weight="bold" fill="#FFFFFF">AKIBAT:</text>
<text x="903.0" y="312" text-anchor="middle" font-size="15" font-weight="normal" fill="#FFFFFF">Keterlambatan</text>
<text x="903.0" y="336" text-anchor="middle" font-size="15" font-weight="normal" fill="#FFFFFF">Sinkronisasi Data</text>
<text x="903.0" y="360" text-anchor="middle" font-size="15" font-weight="normal" fill="#FFFFFF">Gate ke Server Pusat</text>
<line x1="100" y1="95" x2="250" y2="320" stroke="#2E74B5" stroke-width="2.5"/>
<rect x="25.0" y="65" width="150" height="30" rx="6" fill="#2E74B5" stroke="#333" stroke-width="1"/>
<text x="100" y="85" text-anchor="middle" font-size="14" font-weight="bold" fill="#FFFFFF">MANUSIA</text>
<circle cx="138" cy="151" r="3" fill="#2E74B5"/>
<text x="150" y="147" font-size="11.5" fill="#333">Monitoring bergantung</text>
<circle cx="175" cy="208" r="3" fill="#2E74B5"/>
<text x="187" y="204" font-size="11.5" fill="#333">pada petugas</text>
<circle cx="212" cy="264" r="3" fill="#2E74B5"/>
<text x="224" y="260" font-size="11.5" fill="#333">Pengecekan manual berulang</text>
<line x1="320" y1="95" x2="470" y2="320" stroke="#548235" stroke-width="2.5"/>
<rect x="245.0" y="65" width="150" height="30" rx="6" fill="#548235" stroke="#333" stroke-width="1"/>
<text x="320" y="85" text-anchor="middle" font-size="14" font-weight="bold" fill="#FFFFFF">METODE</text>
<circle cx="358" cy="151" r="3" fill="#548235"/>
<text x="370" y="147" font-size="11.5" fill="#333">Belum ada monitoring realtime</text>
<circle cx="395" cy="208" r="3" fill="#548235"/>
<text x="407" y="204" font-size="11.5" fill="#333">Belum ada early warning</text>
<circle cx="432" cy="264" r="3" fill="#548235"/>
<text x="444" y="260" font-size="11.5" fill="#333">Monitoring masih manual</text>
<line x1="520" y1="95" x2="670" y2="320" stroke="#BF8F00" stroke-width="2.5"/>
<rect x="445.0" y="65" width="150" height="30" rx="6" fill="#BF8F00" stroke="#333" stroke-width="1"/>
<text x="520" y="85" text-anchor="middle" font-size="14" font-weight="bold" fill="#FFFFFF">LINGKUNGAN</text>
<circle cx="558" cy="151" r="3" fill="#BF8F00"/>
<text x="570" y="147" font-size="11.5" fill="#333">Jumlah gate sangat banyak</text>
<circle cx="595" cy="208" r="3" fill="#BF8F00"/>
<text x="607" y="204" font-size="11.5" fill="#333">(1.024 unit)</text>
<circle cx="632" cy="264" r="3" fill="#BF8F00"/>
<text x="644" y="260" font-size="11.5" fill="#333">Tersebar di 84 stasiun</text>
<line x1="210" y1="545" x2="360" y2="320" stroke="#C55A11" stroke-width="2.5"/>
<rect x="135.0" y="545" width="150" height="30" rx="6" fill="#C55A11" stroke="#333" stroke-width="1"/>
<text x="210" y="565" text-anchor="middle" font-size="14" font-weight="bold" fill="#FFFFFF">MESIN / ALAT</text>
<circle cx="248" cy="489" r="3" fill="#C55A11"/>
<text x="260" y="501" font-size="11.5" fill="#333">Belum ada dashboard terpusat</text>
<circle cx="285" cy="432" r="3" fill="#C55A11"/>
<text x="297" y="444" font-size="11.5" fill="#333">Tidak ada notifikasi otomatis</text>
<circle cx="322" cy="376" r="3" fill="#C55A11"/>
<text x="334" y="388" font-size="11.5" fill="#333">Aplikasi sync tak termonitor</text>
<line x1="430" y1="545" x2="580" y2="320" stroke="#7030A0" stroke-width="2.5"/>
<rect x="355.0" y="545" width="150" height="30" rx="6" fill="#7030A0" stroke="#333" stroke-width="1"/>
<text x="430" y="565" text-anchor="middle" font-size="14" font-weight="bold" fill="#FFFFFF">MATERIAL</text>
<circle cx="468" cy="489" r="3" fill="#7030A0"/>
<text x="480" y="501" font-size="11.5" fill="#333">Database lokal tiap gate</text>
<circle cx="505" cy="432" r="3" fill="#7030A0"/>
<text x="517" y="444" font-size="11.5" fill="#333">berdiri sendiri</text>
<circle cx="542" cy="376" r="3" fill="#7030A0"/>
<text x="554" y="388" font-size="11.5" fill="#333">Data gagal terkirim</text>
</svg>